<svg width="169" height="61" viewBox="0 0 169 61" fill="none" xmlns="http://www.w3.org/2000/svg">
<rect width="169" height="61" rx="8" fill="url(#paint0_linear_394_809)"/>
<path d="M70.4353 41.4V35.6H71.9153C72.542 34.84 73.0086 33.8 73.3153 32.48C73.622 31.1467 73.7753 29.5267 73.7753 27.62V23.9H84.3553V35.6H86.4153V41.4H83.7153V38H73.1553V41.4H70.4353ZM74.9953 35.6H81.2553V26.28H76.6153V27.92C76.6153 29.72 76.482 31.2467 76.2153 32.5C75.9486 33.7533 75.542 34.7867 74.9953 35.6ZM92.1955 38.22C91.3155 38.22 90.5421 38.0067 89.8755 37.58C89.2088 37.1533 88.6888 36.5467 88.3155 35.76C87.9421 34.9733 87.7555 34.0267 87.7555 32.92C87.7555 31.8267 87.9421 30.8867 88.3155 30.1C88.6888 29.3133 89.2088 28.7133 89.8755 28.3C90.5421 27.8733 91.3155 27.66 92.1955 27.66C93.0088 27.66 93.7355 27.86 94.3755 28.26C95.0288 28.6467 95.4555 29.1733 95.6555 29.84H95.4355L95.6755 27.86H98.5755C98.5355 28.3 98.4955 28.7467 98.4555 29.2C98.4288 29.64 98.4155 30.0733 98.4155 30.5V38H95.4155L95.3955 36.1H95.6355C95.4221 36.74 94.9955 37.2533 94.3555 37.64C93.7155 38.0267 92.9955 38.22 92.1955 38.22ZM93.1155 35.94C93.8088 35.94 94.3688 35.6933 94.7955 35.2C95.2221 34.7067 95.4355 33.9467 95.4355 32.92C95.4355 31.8933 95.2221 31.14 94.7955 30.66C94.3688 30.18 93.8088 29.94 93.1155 29.94C92.4221 29.94 91.8621 30.18 91.4355 30.66C91.0088 31.14 90.7955 31.8933 90.7955 32.92C90.7955 33.9467 91.0021 34.7067 91.4155 35.2C91.8421 35.6933 92.4088 35.94 93.1155 35.94Z" fill="white"/>
<defs>
<linearGradient id="paint0_linear_394_809" x1="-30.4021" y1="54.5001" x2="172.702" y2="49.5641" gradientUnits="userSpaceOnUse">
<stop stop-color="#7FFFA3"/>
<stop offset="1" stop-color="#00C938"/>
</linearGradient>
</defs>
</svg>
