<svg width="306" height="64" viewBox="0 0 306 64" fill="none" xmlns="http://www.w3.org/2000/svg">
<rect x="1" y="1" width="304" height="62" rx="31" fill="url(#paint0_radial_138_1046)"/>
<rect x="1" y="1" width="304" height="62" rx="31" stroke="url(#paint1_linear_138_1046)" stroke-width="2"/>
<rect x="1" y="1" width="304" height="62" rx="31" stroke="url(#paint2_linear_138_1046)" stroke-width="2"/>
<path d="M37.6114 38V25.31H40.3834V30.566H42.2914L41.8054 30.872L45.3694 25.31H48.4294L44.3434 31.412L43.2454 30.656C44.0974 30.8 44.7994 31.094 45.3514 31.538C45.9154 31.982 46.4014 32.612 46.8094 33.428L49.0954 38H46.0714L44.3614 34.4C44.0974 33.824 43.7734 33.422 43.3894 33.194C43.0054 32.954 42.5134 32.834 41.9134 32.834H40.3834V38H37.6114ZM49.7374 42.086L49.1074 39.962C49.6714 39.854 50.1454 39.728 50.5294 39.584C50.9254 39.44 51.2494 39.248 51.5014 39.008C51.7534 38.78 51.9574 38.48 52.1134 38.108L52.5634 37.046L52.4914 38.09L48.5314 28.874H51.3934L54.0034 35.48H53.4454L56.0914 28.874H58.7914L54.6694 38.36C54.3694 39.044 54.0454 39.608 53.6974 40.052C53.3614 40.508 52.9954 40.868 52.5994 41.132C52.2034 41.396 51.7654 41.6 51.2854 41.744C50.8174 41.888 50.3014 42.002 49.7374 42.086ZM60.0227 41.888V31.25C60.0227 30.866 60.0107 30.476 59.9867 30.08C59.9627 29.672 59.9267 29.27 59.8787 28.874H62.4887L62.7047 30.656H62.5067C62.6867 30.056 63.0647 29.582 63.6407 29.234C64.2167 28.874 64.8767 28.694 65.6207 28.694C66.4127 28.694 67.1087 28.886 67.7087 29.27C68.3087 29.642 68.7767 30.182 69.1127 30.89C69.4607 31.598 69.6347 32.444 69.6347 33.428C69.6347 34.424 69.4607 35.276 69.1127 35.984C68.7767 36.692 68.3087 37.238 67.7087 37.622C67.1087 38.006 66.4127 38.198 65.6207 38.198C64.8887 38.198 64.2347 38.024 63.6587 37.676C63.0947 37.328 62.7167 36.866 62.5247 36.29H62.7407V41.888H60.0227ZM64.7927 36.146C65.4287 36.146 65.9387 35.924 66.3227 35.48C66.7067 35.036 66.8987 34.352 66.8987 33.428C66.8987 32.504 66.7067 31.826 66.3227 31.394C65.9387 30.962 65.4287 30.746 64.7927 30.746C64.1687 30.746 63.6587 30.962 63.2627 31.394C62.8787 31.826 62.6867 32.504 62.6867 33.428C62.6867 34.352 62.8787 35.036 63.2627 35.48C63.6587 35.924 64.1687 36.146 64.7927 36.146ZM76.069 38.198C75.097 38.198 74.245 38.006 73.513 37.622C72.781 37.238 72.217 36.686 71.821 35.966C71.425 35.246 71.227 34.394 71.227 33.41C71.227 32.414 71.425 31.568 71.821 30.872C72.229 30.164 72.793 29.624 73.513 29.252C74.245 28.88 75.097 28.694 76.069 28.694C76.681 28.694 77.275 28.784 77.851 28.964C78.439 29.144 78.919 29.396 79.291 29.72L78.499 31.592C78.199 31.316 77.851 31.112 77.455 30.98C77.071 30.836 76.699 30.764 76.339 30.764C75.607 30.764 75.037 30.992 74.629 31.448C74.221 31.904 74.017 32.564 74.017 33.428C74.017 34.292 74.221 34.952 74.629 35.408C75.037 35.864 75.607 36.092 76.339 36.092C76.687 36.092 77.053 36.026 77.437 35.894C77.833 35.762 78.187 35.564 78.499 35.3L79.291 37.154C78.907 37.478 78.421 37.736 77.833 37.928C77.257 38.108 76.669 38.198 76.069 38.198ZM90.0301 38.198C89.1541 38.198 88.3261 38.066 87.5461 37.802C86.7781 37.526 86.1361 37.16 85.6201 36.704L86.5021 34.49C87.0541 34.934 87.6061 35.258 88.1581 35.462C88.7101 35.654 89.3041 35.75 89.9401 35.75C91.1041 35.75 92.0161 35.432 92.6761 34.796C93.3361 34.16 93.7021 33.212 93.7741 31.952L94.4941 32.618H88.0681V30.458H94.4401L93.7381 31.178C93.6661 30.026 93.3061 29.138 92.6581 28.514C92.0221 27.878 91.1521 27.56 90.0481 27.56C89.4001 27.56 88.7941 27.656 88.2301 27.848C87.6781 28.028 87.1021 28.346 86.5021 28.802L85.6201 26.606C86.1841 26.138 86.8561 25.772 87.6361 25.508C88.4281 25.244 89.2621 25.112 90.1381 25.112C91.4941 25.112 92.6581 25.382 93.6301 25.922C94.6021 26.462 95.3461 27.218 95.8621 28.19C96.3901 29.162 96.6541 30.314 96.6541 31.646C96.6541 32.978 96.3901 34.136 95.8621 35.12C95.3461 36.092 94.5901 36.848 93.5941 37.388C92.6101 37.928 91.4221 38.198 90.0301 38.198ZM100.743 38V30.998H97.7192V28.874H106.467V30.998H103.425V38H100.743ZM112.05 38.198C111.078 38.198 110.232 38.006 109.512 37.622C108.804 37.226 108.252 36.674 107.856 35.966C107.472 35.258 107.28 34.412 107.28 33.428C107.28 32.456 107.472 31.616 107.856 30.908C108.252 30.2 108.804 29.654 109.512 29.27C110.232 28.886 111.078 28.694 112.05 28.694C113.022 28.694 113.868 28.886 114.588 29.27C115.308 29.654 115.86 30.2 116.244 30.908C116.64 31.616 116.838 32.456 116.838 33.428C116.838 34.412 116.64 35.258 116.244 35.966C115.86 36.674 115.308 37.226 114.588 37.622C113.868 38.006 113.022 38.198 112.05 38.198ZM112.05 36.146C112.674 36.146 113.166 35.924 113.526 35.48C113.898 35.036 114.084 34.352 114.084 33.428C114.084 32.504 113.898 31.826 113.526 31.394C113.166 30.962 112.674 30.746 112.05 30.746C111.426 30.746 110.928 30.962 110.556 31.394C110.196 31.826 110.016 32.504 110.016 33.428C110.016 34.352 110.196 35.036 110.556 35.48C110.928 35.924 111.426 36.146 112.05 36.146ZM118.82 38V28.874H121.502V32.312H122.672L125.138 28.874H128.036L124.724 33.518L124.184 32.654C124.508 32.69 124.802 32.786 125.066 32.942C125.33 33.098 125.576 33.302 125.804 33.554C126.044 33.806 126.26 34.106 126.452 34.454L128.396 38H125.516L124.022 35.318C123.902 35.078 123.77 34.892 123.626 34.76C123.494 34.616 123.344 34.52 123.176 34.472C123.008 34.412 122.804 34.382 122.564 34.382H121.502V38H118.82ZM133.883 38.198C132.911 38.198 132.059 38.006 131.327 37.622C130.595 37.238 130.031 36.686 129.635 35.966C129.239 35.246 129.041 34.394 129.041 33.41C129.041 32.414 129.239 31.568 129.635 30.872C130.043 30.164 130.607 29.624 131.327 29.252C132.059 28.88 132.911 28.694 133.883 28.694C134.495 28.694 135.089 28.784 135.665 28.964C136.253 29.144 136.733 29.396 137.105 29.72L136.313 31.592C136.013 31.316 135.665 31.112 135.269 30.98C134.885 30.836 134.513 30.764 134.153 30.764C133.421 30.764 132.851 30.992 132.443 31.448C132.035 31.904 131.831 32.564 131.831 33.428C131.831 34.292 132.035 34.952 132.443 35.408C132.851 35.864 133.421 36.092 134.153 36.092C134.501 36.092 134.867 36.026 135.251 35.894C135.647 35.762 136.001 35.564 136.313 35.3L137.105 37.154C136.721 37.478 136.235 37.736 135.647 37.928C135.071 38.108 134.483 38.198 133.883 38.198ZM138.876 38V28.874H141.324V35.282H140.73L145.554 28.874H147.786V38H145.338V31.592H145.932L141.09 38H138.876ZM149.424 40.34V35.966H150.504C150.828 35.426 151.062 34.802 151.206 34.094C151.35 33.386 151.422 32.498 151.422 31.43V28.874H158.802V35.966H160.296V40.34H158.01V38H151.71V40.34H149.424ZM152.898 35.984H156.264V30.908H153.69V32.096C153.69 32.804 153.618 33.512 153.474 34.22C153.342 34.916 153.15 35.504 152.898 35.984ZM166.208 38.198C165.236 38.198 164.39 38.006 163.67 37.622C162.962 37.226 162.41 36.674 162.014 35.966C161.63 35.258 161.438 34.412 161.438 33.428C161.438 32.456 161.63 31.616 162.014 30.908C162.41 30.2 162.962 29.654 163.67 29.27C164.39 28.886 165.236 28.694 166.208 28.694C167.18 28.694 168.026 28.886 168.746 29.27C169.466 29.654 170.018 30.2 170.402 30.908C170.798 31.616 170.996 32.456 170.996 33.428C170.996 34.412 170.798 35.258 170.402 35.966C170.018 36.674 169.466 37.226 168.746 37.622C168.026 38.006 167.18 38.198 166.208 38.198ZM166.208 36.146C166.832 36.146 167.324 35.924 167.684 35.48C168.056 35.036 168.242 34.352 168.242 33.428C168.242 32.504 168.056 31.826 167.684 31.394C167.324 30.962 166.832 30.746 166.208 30.746C165.584 30.746 165.086 30.962 164.714 31.394C164.354 31.826 164.174 32.504 164.174 33.428C164.174 34.352 164.354 35.036 164.714 35.48C165.086 35.924 165.584 36.146 166.208 36.146ZM172.712 38.27L171.902 36.146C172.286 36.026 172.61 35.864 172.874 35.66C173.138 35.456 173.348 35.192 173.504 34.868C173.672 34.544 173.792 34.142 173.864 33.662C173.936 33.182 173.972 32.612 173.972 31.952V28.874H181.622V38H178.922V30.944H176.42V32.042C176.42 33.29 176.288 34.346 176.024 35.21C175.76 36.074 175.358 36.758 174.818 37.262C174.278 37.766 173.576 38.102 172.712 38.27ZM187.618 38.198C186.826 38.198 186.13 38.006 185.53 37.622C184.93 37.238 184.462 36.692 184.126 35.984C183.79 35.276 183.622 34.424 183.622 33.428C183.622 32.444 183.79 31.598 184.126 30.89C184.462 30.182 184.93 29.642 185.53 29.27C186.13 28.886 186.826 28.694 187.618 28.694C188.35 28.694 189.004 28.874 189.58 29.234C190.168 29.582 190.552 30.056 190.732 30.656H190.534L190.75 28.874H193.36C193.324 29.27 193.288 29.672 193.252 30.08C193.228 30.476 193.216 30.866 193.216 31.25V38H190.516L190.498 36.29H190.714C190.522 36.866 190.138 37.328 189.562 37.676C188.986 38.024 188.338 38.198 187.618 38.198ZM188.446 36.146C189.07 36.146 189.574 35.924 189.958 35.48C190.342 35.036 190.534 34.352 190.534 33.428C190.534 32.504 190.342 31.826 189.958 31.394C189.574 30.962 189.07 30.746 188.446 30.746C187.822 30.746 187.318 30.962 186.934 31.394C186.55 31.826 186.358 32.504 186.358 33.428C186.358 34.352 186.544 35.036 186.916 35.48C187.3 35.924 187.81 36.146 188.446 36.146ZM205.414 38.198C203.782 38.198 202.522 37.64 201.634 36.524C200.746 35.408 200.302 33.842 200.302 31.826C200.302 30.41 200.53 29.204 200.986 28.208C201.442 27.2 202.09 26.432 202.93 25.904C203.782 25.376 204.802 25.112 205.99 25.112C206.674 25.112 207.352 25.232 208.024 25.472C208.708 25.7 209.302 26.036 209.806 26.48L208.906 28.55C208.462 28.178 207.988 27.902 207.484 27.722C206.98 27.53 206.47 27.434 205.954 27.434C204.97 27.434 204.22 27.758 203.704 28.406C203.188 29.054 202.93 30.02 202.93 31.304V32.474H202.696C202.792 31.898 202.99 31.412 203.29 31.016C203.59 30.608 203.974 30.296 204.442 30.08C204.91 29.864 205.426 29.756 205.99 29.756C206.71 29.756 207.352 29.936 207.916 30.296C208.492 30.644 208.942 31.13 209.266 31.754C209.59 32.366 209.752 33.068 209.752 33.86C209.752 34.7 209.566 35.45 209.194 36.11C208.822 36.758 208.312 37.268 207.664 37.64C207.028 38.012 206.278 38.198 205.414 38.198ZM205.27 36.02C205.654 36.02 205.99 35.936 206.278 35.768C206.566 35.6 206.788 35.36 206.944 35.048C207.1 34.736 207.178 34.376 207.178 33.968C207.178 33.56 207.1 33.206 206.944 32.906C206.788 32.594 206.566 32.354 206.278 32.186C205.99 32.006 205.654 31.916 205.27 31.916C204.886 31.916 204.55 32.006 204.262 32.186C203.974 32.354 203.746 32.594 203.578 32.906C203.422 33.206 203.344 33.56 203.344 33.968C203.344 34.376 203.422 34.736 203.578 35.048C203.746 35.36 203.974 35.6 204.262 35.768C204.55 35.936 204.886 36.02 205.27 36.02ZM215.739 38.198C214.215 38.198 213.039 37.628 212.211 36.488C211.395 35.336 210.987 33.716 210.987 31.628C210.987 29.504 211.395 27.89 212.211 26.786C213.039 25.67 214.215 25.112 215.739 25.112C217.275 25.112 218.451 25.67 219.267 26.786C220.083 27.89 220.491 29.498 220.491 31.61C220.491 33.71 220.083 35.336 219.267 36.488C218.451 37.628 217.275 38.198 215.739 38.198ZM215.739 35.93C216.435 35.93 216.951 35.588 217.287 34.904C217.635 34.208 217.809 33.11 217.809 31.61C217.809 30.11 217.635 29.03 217.287 28.37C216.951 27.71 216.435 27.38 215.739 27.38C215.043 27.38 214.521 27.71 214.173 28.37C213.837 29.03 213.669 30.104 213.669 31.592C213.669 33.104 213.843 34.208 214.191 34.904C214.539 35.588 215.055 35.93 215.739 35.93ZM226.68 40.34V35.966H227.76C228.084 35.426 228.318 34.802 228.462 34.094C228.606 33.386 228.678 32.498 228.678 31.43V28.874H236.058V35.966H237.552V40.34H235.266V38H228.966V40.34H226.68ZM230.154 35.984H233.52V30.908H230.946V32.096C230.946 32.804 230.874 33.512 230.73 34.22C230.598 34.916 230.406 35.504 230.154 35.984ZM239.072 38V28.874H241.754V32.312H245.354V28.874H248.036V38H245.354V34.382H241.754V38H239.072ZM255.072 38.198C253.488 38.198 252.252 37.772 251.364 36.92C250.476 36.068 250.032 34.91 250.032 33.446C250.032 32.498 250.218 31.67 250.59 30.962C250.974 30.254 251.502 29.702 252.174 29.306C252.858 28.898 253.656 28.694 254.568 28.694C255.468 28.694 256.218 28.886 256.818 29.27C257.43 29.654 257.886 30.194 258.186 30.89C258.498 31.574 258.654 32.372 258.654 33.284V33.914H252.264V32.564H256.674L256.368 32.816C256.368 32.06 256.212 31.49 255.9 31.106C255.6 30.71 255.162 30.512 254.586 30.512C253.95 30.512 253.458 30.746 253.11 31.214C252.774 31.682 252.606 32.354 252.606 33.23V33.518C252.606 34.406 252.822 35.066 253.254 35.498C253.698 35.93 254.334 36.146 255.162 36.146C255.654 36.146 256.116 36.086 256.548 35.966C256.992 35.834 257.412 35.63 257.808 35.354L258.564 37.154C258.108 37.49 257.58 37.748 256.98 37.928C256.392 38.108 255.756 38.198 255.072 38.198ZM260.605 38V28.874H263.053V35.282H262.459L267.283 28.874H269.515V38H267.067V31.592H267.661L262.819 38H260.605ZM265.033 28.082C264.373 28.082 263.803 27.974 263.323 27.758C262.843 27.542 262.453 27.242 262.153 26.858C261.865 26.474 261.667 26.036 261.559 25.544L262.891 25.112C263.083 25.652 263.353 26.048 263.701 26.3C264.049 26.54 264.505 26.66 265.069 26.66C265.621 26.66 266.071 26.534 266.419 26.282C266.767 26.03 267.043 25.646 267.247 25.13L268.507 25.544C268.291 26.336 267.883 26.96 267.283 27.416C266.695 27.86 265.945 28.082 265.033 28.082Z" fill="url(#paint3_linear_138_1046)"/>
<defs>
<radialGradient id="paint0_radial_138_1046" cx="0" cy="0" r="1" gradientUnits="userSpaceOnUse" gradientTransform="translate(159 27.5) rotate(-176.82) scale(162.25 33.2434)">
<stop stop-color="#252C6B"/>
<stop offset="1" stop-color="#181D48"/>
</radialGradient>
<linearGradient id="paint1_linear_138_1046" x1="-55.0476" y1="57.1804" x2="312.274" y2="41.7746" gradientUnits="userSpaceOnUse">
<stop stop-color="#7FFFA3"/>
<stop offset="1" stop-color="#00C938"/>
</linearGradient>
<linearGradient id="paint2_linear_138_1046" x1="198.999" y1="58.5002" x2="167.442" y2="-84.9257" gradientUnits="userSpaceOnUse">
<stop stop-color="#20D7FF"/>
<stop offset="1" stop-color="#00239E"/>
</linearGradient>
<linearGradient id="paint3_linear_138_1046" x1="271" y1="32" x2="262.863" y2="-33.1867" gradientUnits="userSpaceOnUse">
<stop stop-color="#20D7FF"/>
<stop offset="1" stop-color="#00239E"/>
</linearGradient>
</defs>
</svg>
