<svg width="288" height="57" viewBox="0 0 288 57" fill="none" xmlns="http://www.w3.org/2000/svg">
<rect x="1" y="1.63159" width="286" height="54" rx="27" fill="url(#paint0_radial_141_6452)"/>
<rect x="1" y="1.63159" width="286" height="54" rx="27" stroke="url(#paint1_linear_141_6452)" stroke-width="2"/>
<rect x="1" y="1.63159" width="286" height="54" rx="27" stroke="url(#paint2_linear_141_6452)" stroke-width="2"/>
<path d="M47.4262 31.6316V21.0566H49.7362V25.4366H51.3262L50.9212 25.6916L53.8912 21.0566H56.4412L53.0362 26.1416L52.1212 25.5116C52.8312 25.6316 53.4162 25.8766 53.8762 26.2466C54.3462 26.6166 54.7512 27.1416 55.0912 27.8216L56.9962 31.6316H54.4762L53.0512 28.6316C52.8312 28.1516 52.5612 27.8166 52.2412 27.6266C51.9212 27.4266 51.5112 27.3266 51.0112 27.3266H49.7362V31.6316H47.4262ZM57.5312 35.0366L57.0062 33.2666C57.4762 33.1766 57.8712 33.0716 58.1912 32.9516C58.5212 32.8316 58.7912 32.6716 59.0012 32.4716C59.2112 32.2816 59.3812 32.0316 59.5112 31.7216L59.8862 30.8366L59.8262 31.7066L56.5262 24.0266H58.9112L61.0862 29.5316H60.6212L62.8262 24.0266H65.0762L61.6412 31.9316C61.3912 32.5016 61.1212 32.9716 60.8312 33.3416C60.5512 33.7216 60.2462 34.0216 59.9162 34.2416C59.5862 34.4616 59.2212 34.6316 58.8212 34.7516C58.4312 34.8716 58.0012 34.9666 57.5312 35.0366ZM66.1022 34.8716V26.0066C66.1022 25.6866 66.0922 25.3616 66.0722 25.0316C66.0522 24.6916 66.0222 24.3566 65.9822 24.0266H68.1572L68.3372 25.5116H68.1722C68.3222 25.0116 68.6372 24.6166 69.1172 24.3266C69.5972 24.0266 70.1472 23.8766 70.7672 23.8766C71.4272 23.8766 72.0072 24.0366 72.5072 24.3566C73.0072 24.6666 73.3972 25.1166 73.6772 25.7066C73.9672 26.2966 74.1122 27.0016 74.1122 27.8216C74.1122 28.6516 73.9672 29.3616 73.6772 29.9516C73.3972 30.5416 73.0072 30.9966 72.5072 31.3166C72.0072 31.6366 71.4272 31.7966 70.7672 31.7966C70.1572 31.7966 69.6122 31.6516 69.1322 31.3616C68.6622 31.0716 68.3472 30.6866 68.1872 30.2066H68.3672V34.8716H66.1022ZM70.0772 30.0866C70.6072 30.0866 71.0322 29.9016 71.3522 29.5316C71.6722 29.1616 71.8322 28.5916 71.8322 27.8216C71.8322 27.0516 71.6722 26.4866 71.3522 26.1266C71.0322 25.7666 70.6072 25.5866 70.0772 25.5866C69.5572 25.5866 69.1322 25.7666 68.8022 26.1266C68.4822 26.4866 68.3222 27.0516 68.3222 27.8216C68.3222 28.5916 68.4822 29.1616 68.8022 29.5316C69.1322 29.9016 69.5572 30.0866 70.0772 30.0866ZM79.4742 31.7966C78.6642 31.7966 77.9542 31.6366 77.3442 31.3166C76.7342 30.9966 76.2642 30.5366 75.9342 29.9366C75.6042 29.3366 75.4392 28.6266 75.4392 27.8066C75.4392 26.9766 75.6042 26.2716 75.9342 25.6916C76.2742 25.1016 76.7442 24.6516 77.3442 24.3416C77.9542 24.0316 78.6642 23.8766 79.4742 23.8766C79.9842 23.8766 80.4792 23.9516 80.9592 24.1016C81.4492 24.2516 81.8492 24.4616 82.1592 24.7316L81.4992 26.2916C81.2492 26.0616 80.9592 25.8916 80.6292 25.7816C80.3092 25.6616 79.9992 25.6016 79.6992 25.6016C79.0892 25.6016 78.6142 25.7916 78.2742 26.1716C77.9342 26.5516 77.7642 27.1016 77.7642 27.8216C77.7642 28.5416 77.9342 29.0916 78.2742 29.4716C78.6142 29.8516 79.0892 30.0416 79.6992 30.0416C79.9892 30.0416 80.2942 29.9866 80.6142 29.8766C80.9442 29.7666 81.2392 29.6016 81.4992 29.3816L82.1592 30.9266C81.8392 31.1966 81.4342 31.4116 80.9442 31.5716C80.4642 31.7216 79.9742 31.7966 79.4742 31.7966ZM91.1084 31.7966C90.3784 31.7966 89.6884 31.6866 89.0384 31.4666C88.3984 31.2366 87.8634 30.9316 87.4334 30.5516L88.1684 28.7066C88.6284 29.0766 89.0884 29.3466 89.5484 29.5166C90.0084 29.6766 90.5034 29.7566 91.0334 29.7566C92.0034 29.7566 92.7634 29.4916 93.3134 28.9616C93.8634 28.4316 94.1684 27.6416 94.2284 26.5916L94.8284 27.1466H89.4734V25.3466H94.7834L94.1984 25.9466C94.1384 24.9866 93.8384 24.2466 93.2984 23.7266C92.7684 23.1966 92.0434 22.9316 91.1234 22.9316C90.5834 22.9316 90.0784 23.0116 89.6084 23.1716C89.1484 23.3216 88.6684 23.5866 88.1684 23.9666L87.4334 22.1366C87.9034 21.7466 88.4634 21.4416 89.1134 21.2216C89.7734 21.0016 90.4684 20.8916 91.1984 20.8916C92.3284 20.8916 93.2984 21.1166 94.1084 21.5666C94.9184 22.0166 95.5384 22.6466 95.9684 23.4566C96.4084 24.2666 96.6284 25.2266 96.6284 26.3366C96.6284 27.4466 96.4084 28.4116 95.9684 29.2316C95.5384 30.0416 94.9084 30.6716 94.0784 31.1216C93.2584 31.5716 92.2684 31.7966 91.1084 31.7966ZM100.036 31.6316V25.7966H97.516V24.0266H104.806V25.7966H102.271V31.6316H100.036ZM109.458 31.7966C108.648 31.7966 107.943 31.6366 107.343 31.3166C106.753 30.9866 106.293 30.5266 105.963 29.9366C105.643 29.3466 105.483 28.6416 105.483 27.8216C105.483 27.0116 105.643 26.3116 105.963 25.7216C106.293 25.1316 106.753 24.6766 107.343 24.3566C107.943 24.0366 108.648 23.8766 109.458 23.8766C110.268 23.8766 110.973 24.0366 111.573 24.3566C112.173 24.6766 112.633 25.1316 112.953 25.7216C113.283 26.3116 113.448 27.0116 113.448 27.8216C113.448 28.6416 113.283 29.3466 112.953 29.9366C112.633 30.5266 112.173 30.9866 111.573 31.3166C110.973 31.6366 110.268 31.7966 109.458 31.7966ZM109.458 30.0866C109.978 30.0866 110.388 29.9016 110.688 29.5316C110.998 29.1616 111.153 28.5916 111.153 27.8216C111.153 27.0516 110.998 26.4866 110.688 26.1266C110.388 25.7666 109.978 25.5866 109.458 25.5866C108.938 25.5866 108.523 25.7666 108.213 26.1266C107.913 26.4866 107.763 27.0516 107.763 27.8216C107.763 28.5916 107.913 29.1616 108.213 29.5316C108.523 29.9016 108.938 30.0866 109.458 30.0866ZM115.1 31.6316V24.0266H117.335V26.8916H118.31L120.365 24.0266H122.78L120.02 27.8966L119.57 27.1766C119.84 27.2066 120.085 27.2866 120.305 27.4166C120.525 27.5466 120.73 27.7166 120.92 27.9266C121.12 28.1366 121.3 28.3866 121.46 28.6766L123.08 31.6316H120.68L119.435 29.3966C119.335 29.1966 119.225 29.0416 119.105 28.9316C118.995 28.8116 118.87 28.7316 118.73 28.6916C118.59 28.6416 118.42 28.6166 118.22 28.6166H117.335V31.6316H115.1ZM127.653 31.7966C126.843 31.7966 126.133 31.6366 125.523 31.3166C124.913 30.9966 124.443 30.5366 124.113 29.9366C123.783 29.3366 123.618 28.6266 123.618 27.8066C123.618 26.9766 123.783 26.2716 124.113 25.6916C124.453 25.1016 124.923 24.6516 125.523 24.3416C126.133 24.0316 126.843 23.8766 127.653 23.8766C128.163 23.8766 128.658 23.9516 129.138 24.1016C129.628 24.2516 130.028 24.4616 130.338 24.7316L129.678 26.2916C129.428 26.0616 129.138 25.8916 128.808 25.7816C128.488 25.6616 128.178 25.6016 127.878 25.6016C127.268 25.6016 126.793 25.7916 126.453 26.1716C126.113 26.5516 125.943 27.1016 125.943 27.8216C125.943 28.5416 126.113 29.0916 126.453 29.4716C126.793 29.8516 127.268 30.0416 127.878 30.0416C128.168 30.0416 128.473 29.9866 128.793 29.8766C129.123 29.7666 129.418 29.6016 129.678 29.3816L130.338 30.9266C130.018 31.1966 129.613 31.4116 129.123 31.5716C128.643 31.7216 128.153 31.7966 127.653 31.7966ZM131.814 31.6316V24.0266H133.854V29.3666H133.359L137.379 24.0266H139.239V31.6316H137.199V26.2916H137.694L133.659 31.6316H131.814ZM140.603 33.5816V29.9366H141.503C141.773 29.4866 141.968 28.9666 142.088 28.3766C142.208 27.7866 142.268 27.0466 142.268 26.1566V24.0266H148.418V29.9366H149.663V33.5816H147.758V31.6316H142.508V33.5816H140.603ZM143.498 29.9516H146.303V25.7216H144.158V26.7116C144.158 27.3016 144.098 27.8916 143.978 28.4816C143.868 29.0616 143.708 29.5516 143.498 29.9516ZM154.59 31.7966C153.78 31.7966 153.075 31.6366 152.475 31.3166C151.885 30.9866 151.425 30.5266 151.095 29.9366C150.775 29.3466 150.615 28.6416 150.615 27.8216C150.615 27.0116 150.775 26.3116 151.095 25.7216C151.425 25.1316 151.885 24.6766 152.475 24.3566C153.075 24.0366 153.78 23.8766 154.59 23.8766C155.4 23.8766 156.105 24.0366 156.705 24.3566C157.305 24.6766 157.765 25.1316 158.085 25.7216C158.415 26.3116 158.58 27.0116 158.58 27.8216C158.58 28.6416 158.415 29.3466 158.085 29.9366C157.765 30.5266 157.305 30.9866 156.705 31.3166C156.105 31.6366 155.4 31.7966 154.59 31.7966ZM154.59 30.0866C155.11 30.0866 155.52 29.9016 155.82 29.5316C156.13 29.1616 156.285 28.5916 156.285 27.8216C156.285 27.0516 156.13 26.4866 155.82 26.1266C155.52 25.7666 155.11 25.5866 154.59 25.5866C154.07 25.5866 153.655 25.7666 153.345 26.1266C153.045 26.4866 152.895 27.0516 152.895 27.8216C152.895 28.5916 153.045 29.1616 153.345 29.5316C153.655 29.9016 154.07 30.0866 154.59 30.0866ZM160.01 31.8566L159.335 30.0866C159.655 29.9866 159.925 29.8516 160.145 29.6816C160.365 29.5116 160.54 29.2916 160.67 29.0216C160.81 28.7516 160.91 28.4166 160.97 28.0166C161.03 27.6166 161.06 27.1416 161.06 26.5916V24.0266H167.435V31.6316H165.185V25.7516H163.1V26.6666C163.1 27.7066 162.99 28.5866 162.77 29.3066C162.55 30.0266 162.215 30.5966 161.765 31.0166C161.315 31.4366 160.73 31.7166 160.01 31.8566ZM172.431 31.7966C171.771 31.7966 171.191 31.6366 170.691 31.3166C170.191 30.9966 169.801 30.5416 169.521 29.9516C169.241 29.3616 169.101 28.6516 169.101 27.8216C169.101 27.0016 169.241 26.2966 169.521 25.7066C169.801 25.1166 170.191 24.6666 170.691 24.3566C171.191 24.0366 171.771 23.8766 172.431 23.8766C173.041 23.8766 173.586 24.0266 174.066 24.3266C174.556 24.6166 174.876 25.0116 175.026 25.5116H174.861L175.041 24.0266H177.216C177.186 24.3566 177.156 24.6916 177.126 25.0316C177.106 25.3616 177.096 25.6866 177.096 26.0066V31.6316H174.846L174.831 30.2066H175.011C174.851 30.6866 174.531 31.0716 174.051 31.3616C173.571 31.6516 173.031 31.7966 172.431 31.7966ZM173.121 30.0866C173.641 30.0866 174.061 29.9016 174.381 29.5316C174.701 29.1616 174.861 28.5916 174.861 27.8216C174.861 27.0516 174.701 26.4866 174.381 26.1266C174.061 25.7666 173.641 25.5866 173.121 25.5866C172.601 25.5866 172.181 25.7666 171.861 26.1266C171.541 26.4866 171.381 27.0516 171.381 27.8216C171.381 28.5916 171.536 29.1616 171.846 29.5316C172.166 29.9016 172.591 30.0866 173.121 30.0866ZM187.262 31.7966C185.902 31.7966 184.852 31.3316 184.112 30.4016C183.372 29.4716 183.002 28.1666 183.002 26.4866C183.002 25.3066 183.192 24.3016 183.572 23.4716C183.952 22.6316 184.492 21.9916 185.192 21.5516C185.902 21.1116 186.752 20.8916 187.742 20.8916C188.312 20.8916 188.877 20.9916 189.437 21.1916C190.007 21.3816 190.502 21.6616 190.922 22.0316L190.172 23.7566C189.802 23.4466 189.407 23.2166 188.987 23.0666C188.567 22.9066 188.142 22.8266 187.712 22.8266C186.892 22.8266 186.267 23.0966 185.837 23.6366C185.407 24.1766 185.192 24.9816 185.192 26.0516V27.0266H184.997C185.077 26.5466 185.242 26.1416 185.492 25.8116C185.742 25.4716 186.062 25.2116 186.452 25.0316C186.842 24.8516 187.272 24.7616 187.742 24.7616C188.342 24.7616 188.877 24.9116 189.347 25.2116C189.827 25.5016 190.202 25.9066 190.472 26.4266C190.742 26.9366 190.877 27.5216 190.877 28.1816C190.877 28.8816 190.722 29.5066 190.412 30.0566C190.102 30.5966 189.677 31.0216 189.137 31.3316C188.607 31.6416 187.982 31.7966 187.262 31.7966ZM187.142 29.9816C187.462 29.9816 187.742 29.9116 187.982 29.7716C188.222 29.6316 188.407 29.4316 188.537 29.1716C188.667 28.9116 188.732 28.6116 188.732 28.2716C188.732 27.9316 188.667 27.6366 188.537 27.3866C188.407 27.1266 188.222 26.9266 187.982 26.7866C187.742 26.6366 187.462 26.5616 187.142 26.5616C186.822 26.5616 186.542 26.6366 186.302 26.7866C186.062 26.9266 185.872 27.1266 185.732 27.3866C185.602 27.6366 185.537 27.9316 185.537 28.2716C185.537 28.6116 185.602 28.9116 185.732 29.1716C185.872 29.4316 186.062 29.6316 186.302 29.7716C186.542 29.9116 186.822 29.9816 187.142 29.9816ZM195.866 31.7966C194.596 31.7966 193.616 31.3216 192.926 30.3716C192.246 29.4116 191.906 28.0616 191.906 26.3216C191.906 24.5516 192.246 23.2066 192.926 22.2866C193.616 21.3566 194.596 20.8916 195.866 20.8916C197.146 20.8916 198.126 21.3566 198.806 22.2866C199.486 23.2066 199.826 24.5466 199.826 26.3066C199.826 28.0566 199.486 29.4116 198.806 30.3716C198.126 31.3216 197.146 31.7966 195.866 31.7966ZM195.866 29.9066C196.446 29.9066 196.876 29.6216 197.156 29.0516C197.446 28.4716 197.591 27.5566 197.591 26.3066C197.591 25.0566 197.446 24.1566 197.156 23.6066C196.876 23.0566 196.446 22.7816 195.866 22.7816C195.286 22.7816 194.851 23.0566 194.561 23.6066C194.281 24.1566 194.141 25.0516 194.141 26.2916C194.141 27.5516 194.286 28.4716 194.576 29.0516C194.866 29.6216 195.296 29.9066 195.866 29.9066ZM204.983 33.5816V29.9366H205.883C206.153 29.4866 206.348 28.9666 206.468 28.3766C206.588 27.7866 206.648 27.0466 206.648 26.1566V24.0266H212.798V29.9366H214.043V33.5816H212.138V31.6316H206.888V33.5816H204.983ZM207.878 29.9516H210.683V25.7216H208.538V26.7116C208.538 27.3016 208.478 27.8916 208.358 28.4816C208.248 29.0616 208.088 29.5516 207.878 29.9516ZM215.31 31.6316V24.0266H217.545V26.8916H220.545V24.0266H222.78V31.6316H220.545V28.6166H217.545V31.6316H215.31ZM228.643 31.7966C227.323 31.7966 226.293 31.4416 225.553 30.7316C224.813 30.0216 224.443 29.0566 224.443 27.8366C224.443 27.0466 224.598 26.3566 224.908 25.7666C225.228 25.1766 225.668 24.7166 226.228 24.3866C226.798 24.0466 227.463 23.8766 228.223 23.8766C228.973 23.8766 229.598 24.0366 230.098 24.3566C230.608 24.6766 230.988 25.1266 231.238 25.7066C231.498 26.2766 231.628 26.9416 231.628 27.7016V28.2266H226.303V27.1016H229.978L229.723 27.3116C229.723 26.6816 229.593 26.2066 229.333 25.8866C229.083 25.5566 228.718 25.3916 228.238 25.3916C227.708 25.3916 227.298 25.5866 227.008 25.9766C226.728 26.3666 226.588 26.9266 226.588 27.6566V27.8966C226.588 28.6366 226.768 29.1866 227.128 29.5466C227.498 29.9066 228.028 30.0866 228.718 30.0866C229.128 30.0866 229.513 30.0366 229.873 29.9366C230.243 29.8266 230.593 29.6566 230.923 29.4266L231.553 30.9266C231.173 31.2066 230.733 31.4216 230.233 31.5716C229.743 31.7216 229.213 31.7966 228.643 31.7966ZM233.254 31.6316V24.0266H235.294V29.3666H234.799L238.819 24.0266H240.679V31.6316H238.639V26.2916H239.134L235.099 31.6316H233.254ZM236.944 23.3666C236.394 23.3666 235.919 23.2766 235.519 23.0966C235.119 22.9166 234.794 22.6666 234.544 22.3466C234.304 22.0266 234.139 21.6616 234.049 21.2516L235.159 20.8916C235.319 21.3416 235.544 21.6716 235.834 21.8816C236.124 22.0816 236.504 22.1816 236.974 22.1816C237.434 22.1816 237.809 22.0766 238.099 21.8666C238.389 21.6566 238.619 21.3366 238.789 20.9066L239.839 21.2516C239.659 21.9116 239.319 22.4316 238.819 22.8116C238.329 23.1816 237.704 23.3666 236.944 23.3666Z" fill="url(#paint3_linear_141_6452)"/>
<defs>
<radialGradient id="paint0_radial_141_6452" cx="0" cy="0" r="1" gradientUnits="userSpaceOnUse" gradientTransform="translate(149.647 24.6941) rotate(-177.043) scale(152.674 29.0941)">
<stop stop-color="#252C6B"/>
<stop offset="1" stop-color="#181D48"/>
</radialGradient>
<linearGradient id="paint1_linear_141_6452" x1="-51.8095" y1="50.6644" x2="293.81" y2="35.0725" gradientUnits="userSpaceOnUse">
<stop stop-color="#7FFFA3"/>
<stop offset="1" stop-color="#00C938"/>
</linearGradient>
<linearGradient id="paint2_linear_141_6452" x1="187.293" y1="51.8193" x2="161.461" y2="-74.4696" gradientUnits="userSpaceOnUse">
<stop stop-color="#20D7FF"/>
<stop offset="1" stop-color="#00239E"/>
</linearGradient>
<linearGradient id="paint3_linear_141_6452" x1="242" y1="31.9997" x2="237.392" y2="-22.3362" gradientUnits="userSpaceOnUse">
<stop stop-color="#20D7FF"/>
<stop offset="1" stop-color="#00239E"/>
</linearGradient>
</defs>
</svg>
