<svg width="169" height="61" viewBox="0 0 169 61" fill="none" xmlns="http://www.w3.org/2000/svg">
<rect x="0.5" y="0.5" width="168" height="60" rx="7.5" stroke="url(#paint0_linear_394_812)"/>
<path d="M67.4732 38V23.9H70.5932V29.56H77.0532V23.9H80.1932V38H77.0532V32.14H70.5932V38H67.4732ZM88.1191 38.22C86.3591 38.22 84.9858 37.7467 83.9991 36.8C83.0125 35.8533 82.5191 34.5667 82.5191 32.94C82.5191 31.8867 82.7258 30.9667 83.1391 30.18C83.5658 29.3933 84.1525 28.78 84.8991 28.34C85.6591 27.8867 86.5458 27.66 87.5591 27.66C88.5591 27.66 89.3925 27.8733 90.0591 28.3C90.7391 28.7267 91.2458 29.3267 91.5791 30.1C91.9258 30.86 92.0991 31.7467 92.0991 32.76V33.46H84.9991V31.96H89.8991L89.5591 32.24C89.5591 31.4 89.3858 30.7667 89.0391 30.34C88.7058 29.9 88.2191 29.68 87.5791 29.68C86.8725 29.68 86.3258 29.94 85.9391 30.46C85.5658 30.98 85.3791 31.7267 85.3791 32.7V33.02C85.3791 34.0067 85.6191 34.74 86.0991 35.22C86.5925 35.7 87.2991 35.94 88.2191 35.94C88.7658 35.94 89.2791 35.8733 89.7591 35.74C90.2525 35.5933 90.7191 35.3667 91.1591 35.06L91.9991 37.06C91.4925 37.4333 90.9058 37.72 90.2391 37.92C89.5858 38.12 88.8791 38.22 88.1191 38.22ZM96.4673 38V30.22H93.1073V27.86H102.827V30.22H99.4473V38H96.4673Z" fill="url(#paint1_linear_394_812)"/>
<defs>
<linearGradient id="paint0_linear_394_812" x1="-30.4021" y1="54.5001" x2="172.702" y2="49.5641" gradientUnits="userSpaceOnUse">
<stop stop-color="#7FFFA3"/>
<stop offset="1" stop-color="#00C938"/>
</linearGradient>
<linearGradient id="paint1_linear_394_812" x1="59.3439" y1="40.3361" x2="103.829" y2="39.7586" gradientUnits="userSpaceOnUse">
<stop stop-color="#7FFFA3"/>
<stop offset="1" stop-color="#00C938"/>
</linearGradient>
</defs>
</svg>
