<svg width="58" height="58" viewBox="0 0 58 58" fill="none" xmlns="http://www.w3.org/2000/svg">
<circle cx="29" cy="29" r="28.5" stroke="#4B4F70"/>
<line x1="49.6534" y1="9.0535" x2="9.05336" y2="49.6535" stroke="#4B4F70"/>
<path d="M45.4914 45.0258L45.7247 45.7254L45.0251 45.4922L40.4541 40.9214L40.9207 40.4548L45.4914 45.0258Z" fill="#4B4F70"/>
<path d="M15.7938 20.9355L20.9354 15.7939C21.9229 14.8112 23.3772 16.31 22.4144 17.2729L17.2728 22.4145C16.2901 23.402 14.8309 21.8983 15.7938 20.9355Z" fill="#4B4F70"/>
<path d="M14.2651 15.8039L15.8037 14.2654L18.8409 17.3026L17.3023 18.8411L14.2651 15.8039Z" fill="#4B4F70"/>
<path d="M13.089 15.5507L15.5507 13.089C15.8285 12.816 16.2455 13.2328 15.9725 13.5108L13.5108 15.9725C13.233 16.2456 12.8159 15.8287 13.089 15.5507Z" fill="#4B4F70"/>
<path d="M32.558 34.1265C32.3943 34.2854 32.6425 34.5285 32.8011 34.3696L35.645 31.5258L37.4862 33.367C38.0818 33.9626 38.0818 34.9353 37.4862 35.5258L35.5258 37.4862C34.9353 38.0818 33.9626 38.0818 33.367 37.4862L18.0762 22.1953L22.1953 18.0762L25.5452 21.4261C24.5924 22.3691 23.6495 23.3219 22.7014 24.2699C22.5425 24.4288 22.7859 24.6719 22.9445 24.513C23.8926 23.565 24.8453 22.6222 25.7884 21.6692L28.0067 23.8875L25.1629 26.7314C25.004 26.895 25.2474 27.1384 25.411 26.9795L28.2498 24.1357L30.4732 26.354C29.5204 27.2971 28.5774 28.2498 27.6294 29.1979C27.4657 29.3567 27.7139 29.5999 27.8725 29.441L30.7163 26.5972L32.9347 28.8155C31.9867 29.7636 31.0389 30.7113 30.0909 31.6593C29.932 31.823 30.1753 32.0664 30.339 31.9075L33.1778 29.0637L35.4012 31.282C34.4484 32.225 33.5054 33.1778 32.5574 34.1258L32.558 34.1265Z" fill="#4B4F70"/>
<path d="M35.9829 37.6155L37.6157 35.9827L40.6727 39.0397C40.9704 39.3373 40.9704 39.8188 40.6727 40.1117L40.1119 40.6725C39.819 40.9702 39.3376 40.9702 39.0399 40.6725L35.9829 37.6155Z" fill="#4B4F70"/>
</svg>
