<svg width="39" height="36" viewBox="0 0 39 36" fill="none" xmlns="http://www.w3.org/2000/svg">
<path d="M2.74414 0.328743C2.95568 0.365095 3.11905 0.381738 3.27628 0.42247C4.27311 0.680437 5.06059 1.28046 5.81916 1.94574C6.83876 2.83921 7.39587 4.01167 7.94027 5.21522C9.56953 8.81975 10.9916 12.5075 12.4483 16.1825C12.9279 17.3913 13.5341 18.5511 14.0982 19.7253C14.5712 20.7094 15.0442 21.6962 15.561 22.6562C15.926 23.3332 16.4165 23.9344 17.0063 24.4278C17.9821 25.2504 19.1152 25.5228 20.3682 25.4041C21.8232 25.2644 23.0692 24.6779 24.123 23.6745C24.9205 22.9151 25.5118 22.0102 25.9695 21.0143C26.5756 19.696 26.9768 18.3277 26.9151 16.8592C26.838 14.9711 25.966 13.609 24.2128 12.8509C23.8659 12.7011 23.5015 12.5929 23.1498 12.4536C23.0745 12.4238 23.0184 12.3433 22.9545 12.2859C23.0193 12.2364 23.0771 12.1624 23.1502 12.1413C25.7001 11.4086 27.5847 9.78242 29.1036 7.68058C29.6784 6.89457 30.0471 5.97714 30.1762 5.012C30.319 3.93809 30.1999 2.89921 29.6034 1.96545C29.1154 1.20206 28.3875 0.848181 27.491 0.803945C26.2783 0.744381 25.3699 1.32032 24.6017 2.18181C23.7196 3.1712 23.12 4.33577 22.6961 5.57261C22.0168 7.55269 21.3694 9.54766 20.7948 11.5597C19.9066 14.6693 19.0907 17.8017 18.2458 20.9249C18.1775 21.1772 18.1346 21.4374 18.0518 21.6844C17.9484 21.991 17.789 22.0242 17.5577 21.793C17.1325 21.3655 16.9415 20.8097 16.7593 20.2566C16.5184 19.526 16.5368 18.7644 16.5298 18.0071C16.5127 16.1147 16.9582 14.2979 17.4566 12.4952C18.0303 10.4214 18.6242 8.35156 19.2588 6.29527C19.7573 4.68089 20.6166 3.26886 21.8779 2.12181C22.8415 1.24586 23.9999 0.754454 25.2293 0.400133C26.2651 0.101873 27.3246 -0.0439728 28.4007 0.0116499C29.9713 0.0944271 31.4328 0.496487 32.6289 1.59186C33.3638 2.26503 33.712 3.09236 33.6857 4.10102C33.6419 5.7132 32.9438 7.01661 31.8493 8.13476C30.3628 9.65366 28.5535 10.6658 26.5774 11.3985C25.909 11.6464 25.2319 11.8711 24.5592 12.1063C24.5307 12.1131 24.5035 12.1245 24.4786 12.14C24.4208 12.1869 24.3669 12.239 24.3113 12.2889C24.3704 12.3371 24.4234 12.4125 24.4904 12.4287C24.7791 12.4987 25.0721 12.5522 25.3638 12.6109C26.5104 12.8412 27.5935 13.224 28.547 13.9248C29.4724 14.6045 29.9743 15.5286 30.171 16.6472C30.4587 18.2831 29.9914 19.7533 29.1759 21.1303C27.8926 23.2957 25.9966 24.7441 23.6824 25.6699C22.2638 26.2393 20.7821 26.5152 19.2588 26.4035C16.3003 26.1846 13.948 24.9039 12.3432 22.3475C11.3626 20.7861 10.6053 19.1174 9.89626 17.4224C7.55281 11.8222 5.20745 6.22213 2.8602 0.622186C2.82736 0.543789 2.79757 0.464515 2.74414 0.328743Z" fill="#F07D00"/>
<path d="M21.1723 32.8387C21.2502 33.3538 21.0466 33.5991 20.5722 33.5995H18.3705V34.722H21.5993C21.7075 35.1968 21.4964 35.5056 21.0619 35.5104C19.9315 35.5174 18.8006 35.513 17.6702 35.5104C17.6168 35.5067 17.5637 35.4995 17.5112 35.4889V31.0522H21.478C21.5813 31.5318 21.368 31.8055 20.8893 31.8064C20.1302 31.8064 19.371 31.8064 18.6119 31.8064H18.3648V32.84L21.1723 32.8387Z" fill="white"/>
<path d="M26.6882 34.2161V33.0393C26.6882 32.6092 26.7106 32.1774 26.683 31.749C26.6431 31.1315 27.0202 30.9607 27.5191 31.0535C27.5239 31.1271 27.5331 31.2055 27.5335 31.2839C27.5335 32.6035 27.5296 33.9231 27.5384 35.2428C27.5384 35.4499 27.4827 35.5055 27.2721 35.52C26.8442 35.5542 26.5529 35.3978 26.2766 35.0715C25.5175 34.1767 24.7244 33.3113 23.9452 32.4336C23.9014 32.3854 23.8673 32.3302 23.8287 32.2785L23.7626 32.3018C23.7578 32.374 23.7486 32.4467 23.7481 32.5207C23.7481 33.3091 23.7267 34.0974 23.7551 34.8827C23.7731 35.3785 23.3855 35.6098 22.9326 35.4753V31.0522C23.3785 31.0119 23.7687 30.9909 24.1112 31.4026C24.8698 32.3153 25.6831 33.183 26.4763 34.069C26.5279 34.1268 26.5818 34.1833 26.6344 34.2407L26.6882 34.2161Z" fill="white"/>
<path d="M39.0003 35.5196C38.7646 35.5064 38.5343 35.5261 38.3245 35.4701C38.197 35.4359 38.07 35.3019 37.9986 35.1806C37.8817 34.9813 37.8037 34.7579 37.7227 34.5398C37.6789 34.4163 37.6053 34.3808 37.4783 34.3817C36.7192 34.387 35.9609 34.387 35.2035 34.3817C35.0686 34.3817 34.9902 34.4172 34.9407 34.5477C34.8649 34.7448 34.7655 34.9318 34.6862 35.1276C34.5807 35.3904 34.391 35.5143 34.112 35.5121C33.9539 35.5121 33.7958 35.5121 33.5996 35.5121L34.172 34.2039C34.5776 33.2776 34.9875 32.353 35.387 31.4236C35.5022 31.1552 35.6857 31.026 35.9765 31.0325C36.2393 31.0382 36.5021 31.0325 36.7648 31.0325C36.9922 31.0325 37.166 31.1359 37.2532 31.3391C37.8348 32.6974 38.4121 34.0572 38.9849 35.4184C38.9927 35.4517 38.9979 35.4855 39.0003 35.5196ZM35.2337 33.8342H37.3675C37.3559 33.7809 37.3413 33.7283 37.3237 33.6766C37.0938 33.1112 36.8564 32.5492 36.6361 31.9803C36.5756 31.8248 36.4824 31.7964 36.3369 31.7985C36.1841 31.8007 36.0641 31.8042 35.9945 31.9842C35.7978 32.4923 35.581 32.9916 35.3721 33.4957C35.3309 33.5999 35.288 33.705 35.235 33.8338L35.2337 33.8342Z" fill="white"/>
<path d="M11.0805 35.4714C10.5283 35.6321 10.2142 35.4876 9.99919 34.9822C9.91641 34.7886 9.87436 34.5219 9.72589 34.4273C9.56822 34.327 9.30543 34.3861 9.08864 34.3835C8.4908 34.3808 7.89297 34.3865 7.29557 34.3795C7.1598 34.3795 7.08228 34.4163 7.03279 34.5464C6.95395 34.7492 6.85103 34.9432 6.77 35.1455C6.67408 35.3847 6.4967 35.4959 6.24881 35.5069C6.078 35.5134 5.90675 35.5069 5.69434 35.5069C5.87785 35.0873 6.03946 34.7159 6.20195 34.3445C6.62503 33.3783 7.05381 32.4143 7.46857 31.4442C7.59383 31.1508 7.78829 31.0124 8.10801 31.0273C8.36248 31.0391 8.61825 31.0273 8.87315 31.0317C9.0882 31.0356 9.25682 31.1319 9.34222 31.3312C9.92298 32.6895 10.5008 34.0487 11.0757 35.4088C11.0807 35.4292 11.0823 35.4504 11.0805 35.4714ZM7.32579 33.8325H9.48062C9.21127 33.1707 8.95505 32.5313 8.68877 31.8975C8.62132 31.739 8.19692 31.7521 8.12772 31.9137C7.85705 32.5413 7.59952 33.1707 7.32404 33.8325H7.32579Z" fill="white"/>
<path d="M5.26321 31.0321C5.00043 31.6295 4.75648 32.1883 4.51077 32.7463C4.16434 33.532 3.81002 34.3147 3.47321 35.1035C3.35058 35.3904 3.15349 35.5196 2.84691 35.5117C2.66471 35.5069 2.48252 35.5117 2.30032 35.509C2.07038 35.5029 1.8895 35.4066 1.79446 35.1902C1.19618 33.8331 0.599809 32.474 0.00533215 31.1131C0.00136982 31.0988 -0.000402339 31.0841 7.64556e-05 31.0693C0.539223 30.9037 0.928144 31.0789 1.13881 31.5822C1.53737 32.5273 1.93607 33.4723 2.33492 34.4172C2.352 34.4575 2.35901 34.5078 2.38791 34.5359C2.46105 34.6073 2.54558 34.7216 2.62267 34.7194C2.69975 34.7172 2.80618 34.6108 2.84866 34.5245C2.97392 34.2709 3.07422 34.0046 3.18503 33.7431C3.49161 33.0196 3.80695 32.2978 4.09908 31.5708C4.25237 31.188 4.5042 31.0014 4.91721 31.0294C5.02014 31.0382 5.12438 31.0321 5.26321 31.0321Z" fill="white"/>
<path d="M33.302 31.0448C33.3826 31.562 33.1781 31.8042 32.674 31.8047H31.4533V35.4565C30.9562 35.6361 30.5853 35.3895 30.5844 34.8989C30.5844 33.9437 30.5796 32.9889 30.5874 32.0342C30.5874 31.852 30.5349 31.7972 30.3536 31.8007C29.8149 31.8117 29.2762 31.8047 28.7418 31.8047C28.6104 31.34 28.8294 31.0334 29.2875 31.0325C30.5629 31.0305 31.8386 31.0305 33.1146 31.0325C33.1781 31.0329 33.2424 31.0408 33.302 31.0448Z" fill="white"/>
<path d="M12.3012 31.0369C12.4347 31.0303 12.5685 31.0311 12.7019 31.0395C12.9708 31.0706 13.1456 31.2822 13.1465 31.5708C13.1465 32.5396 13.153 33.5088 13.1425 34.4776C13.1403 34.6843 13.1933 34.7531 13.4084 34.7505C14.2896 34.7386 15.1712 34.7457 16.0529 34.7457H16.3056C16.4151 35.2086 16.2123 35.5055 15.78 35.5082C14.6728 35.5152 13.5652 35.5108 12.458 35.5082C12.405 35.5044 12.3523 35.4969 12.3003 35.4858L12.3012 31.0369Z" fill="white"/>
</svg>
