<svg width="55" height="50" viewBox="0 0 55 50" fill="none" xmlns="http://www.w3.org/2000/svg">
<path d="M3.80957 0.456314C4.1032 0.506773 4.32996 0.529874 4.54821 0.586412C5.93186 0.944484 7.02493 1.77735 8.07787 2.7008C9.49314 3.94099 10.2664 5.56842 11.0221 7.23902C13.2836 12.2423 15.2576 17.3611 17.2795 22.4623C17.9452 24.1402 18.7866 25.75 19.5696 27.3798C20.2262 28.7459 20.8828 30.1155 21.6001 31.4481C22.1067 32.3878 22.7875 33.2223 23.6063 33.9072C24.9608 35.0489 26.5335 35.427 28.2728 35.2623C30.2923 35.0684 32.0219 34.2543 33.4846 32.8616C34.5916 31.8074 35.4124 30.5514 36.0477 29.169C36.889 27.3391 37.4459 25.4399 37.3602 23.4015C37.2532 20.7807 36.0428 18.8901 33.6092 17.8377C33.1277 17.6298 32.6219 17.4797 32.1338 17.2863C32.0292 17.245 31.9514 17.1331 31.8626 17.0535C31.9526 16.9848 32.0329 16.8821 32.1344 16.8529C35.6738 15.8358 38.2897 13.5785 40.398 10.6611C41.1958 9.57005 41.7076 8.2966 41.8868 6.95694C42.085 5.46629 41.9197 4.02427 41.0917 2.72816C40.4144 1.66853 39.404 1.17732 38.1596 1.11592C36.4762 1.03324 35.2154 1.83267 34.1491 3.02848C32.9247 4.4018 32.0924 6.01829 31.504 7.7351C30.5611 10.4836 29.6625 13.2527 28.8649 16.0455C27.632 20.3619 26.4995 24.7098 25.3268 29.045C25.2319 29.3951 25.1723 29.7562 25.0574 30.0991C24.914 30.5247 24.6927 30.5709 24.3717 30.2499C23.7814 29.6565 23.5163 28.8851 23.2634 28.1173C22.9291 27.1032 22.9546 26.046 22.9449 24.9949C22.9212 22.368 23.5394 19.8463 24.2313 17.3441C25.0276 14.4655 25.852 11.5924 26.7329 8.73818C27.4247 6.49734 28.6175 4.53737 30.3683 2.94519C31.7058 1.72933 33.3138 1.04722 35.0202 0.555407C36.458 0.141405 37.9286 -0.0610367 39.4223 0.0161708C41.6023 0.13107 43.631 0.689152 45.2913 2.20959C46.3114 3.14399 46.7947 4.29237 46.7582 5.69244C46.6974 7.93024 45.7284 9.73945 44.2092 11.2915C42.1458 13.3998 39.6345 14.8047 36.8915 15.8218C35.9638 16.1659 35.0239 16.4778 34.0901 16.8042C34.0505 16.8137 34.0127 16.8295 33.9782 16.851C33.898 16.9161 33.8232 16.9884 33.746 17.0577C33.8281 17.1246 33.9016 17.2292 33.9947 17.2517C34.3953 17.3489 34.802 17.4231 35.2069 17.5046C36.7984 17.8244 38.3019 18.3557 39.6253 19.3284C40.9099 20.2719 41.6066 21.5546 41.8796 23.1073C42.279 25.3779 41.6303 27.4187 40.4983 29.3301C38.7171 32.3357 36.0853 34.3461 32.873 35.6313C30.9039 36.4216 28.8473 36.8046 26.7329 36.6496C22.6263 36.3456 19.3611 34.568 17.1336 31.0195C15.7725 28.8523 14.7214 26.536 13.7371 24.1833C10.4843 16.4099 7.22879 8.63666 3.97067 0.863629C3.92508 0.754809 3.88374 0.644773 3.80957 0.456314Z" fill="#F07D00"/>
<path d="M29.3879 45.582C29.4961 46.2969 29.2134 46.6373 28.555 46.638H25.4989V48.1961H29.9806C30.1308 48.8551 29.8377 49.2837 29.2347 49.2904C27.6656 49.3001 26.0959 49.294 24.5268 49.2904C24.4527 49.2852 24.379 49.2753 24.3062 49.2606V43.1022H29.8122C29.9557 43.7679 29.6596 44.1479 28.9951 44.1491C27.9414 44.1491 26.8876 44.1491 25.8339 44.1491H25.491V45.5838L29.3879 45.582Z" fill="white"/>
<path d="M37.0446 47.4939V45.8604C37.0446 45.2634 37.0756 44.664 37.0373 44.0694C36.982 43.2122 37.5054 42.9751 38.1978 43.104C38.2045 43.2062 38.2173 43.315 38.2179 43.4238C38.2179 45.2555 38.2124 47.0872 38.2246 48.9189C38.2246 49.2065 38.1474 49.2837 37.8549 49.3037C37.261 49.3511 36.8567 49.1341 36.4731 48.6812C35.4196 47.4392 34.3186 46.2379 33.2371 45.0196C33.1763 44.9527 33.1289 44.8761 33.0754 44.8044L32.9836 44.8366C32.9769 44.9369 32.9641 45.0379 32.9635 45.1406C32.9635 46.2349 32.9337 47.3292 32.9732 48.4192C32.9982 49.1074 32.4601 49.4283 31.8315 49.2417V43.1022C32.4504 43.0463 32.9921 43.0171 33.4675 43.5885C34.5204 44.8555 35.6494 46.0598 36.7503 47.2896C36.8221 47.3699 36.8968 47.4483 36.9698 47.528L37.0446 47.4939Z" fill="white"/>
<path d="M54.1341 49.3031C53.807 49.2849 53.4873 49.3122 53.1961 49.2344C53.0192 49.187 52.8429 49.001 52.7438 48.8326C52.5815 48.556 52.4732 48.2459 52.3608 47.9432C52.3 47.7717 52.1978 47.7225 52.0215 47.7237C50.9678 47.731 49.9153 47.731 48.8639 47.7237C48.6767 47.7237 48.5679 47.773 48.4992 47.9541C48.394 48.2277 48.256 48.4873 48.146 48.759C47.9995 49.1238 47.7362 49.2958 47.349 49.2928C47.1295 49.2928 46.91 49.2928 46.6377 49.2928L47.4323 47.4769C47.9952 46.1911 48.5642 44.9078 49.1187 43.6177C49.2786 43.2451 49.5333 43.0657 49.9369 43.0749C50.3017 43.0828 50.6665 43.0749 51.0312 43.0749C51.3467 43.0749 51.5881 43.2183 51.7091 43.5004C52.5164 45.3858 53.3177 47.2732 54.1128 49.1627C54.1237 49.2089 54.1308 49.2558 54.1341 49.3031ZM48.9059 46.9638H51.8677C51.8517 46.8897 51.8314 46.8167 51.8069 46.7449C51.4878 45.9601 51.1583 45.1801 50.8525 44.3904C50.7686 44.1746 50.6391 44.1351 50.4373 44.1381C50.2251 44.1412 50.0585 44.146 49.9619 44.3959C49.6889 45.1011 49.388 45.7941 49.098 46.4939C49.0409 46.6386 48.9813 46.7845 48.9077 46.9632L48.9059 46.9638Z" fill="white"/>
<path d="M15.3807 49.2363C14.6141 49.4594 14.1782 49.2587 13.8797 48.5572C13.7648 48.2885 13.7064 47.9183 13.5003 47.7869C13.2815 47.6477 12.9167 47.7298 12.6158 47.7262C11.7859 47.7225 10.9561 47.7304 10.1269 47.7207C9.93844 47.7207 9.83084 47.7717 9.76214 47.9523C9.65271 48.2338 9.50985 48.5031 9.39738 48.784C9.26424 49.1159 9.01803 49.2703 8.67394 49.2855C8.43685 49.2946 8.19914 49.2855 7.9043 49.2855C8.15902 48.7031 8.38335 48.1876 8.60889 47.672C9.19615 46.3309 9.79132 44.9929 10.367 43.6463C10.5409 43.239 10.8108 43.0469 11.2546 43.0676C11.6078 43.084 11.9629 43.0676 12.3167 43.0736C12.6152 43.0791 12.8492 43.2129 12.9678 43.4895C13.7739 45.3749 14.576 47.2615 15.374 49.1493C15.3809 49.1778 15.3831 49.2071 15.3807 49.2363ZM10.1688 46.9614H13.1599C12.786 46.0428 12.4304 45.1552 12.0607 44.2755C11.9671 44.0555 11.378 44.0737 11.282 44.298C10.9063 45.1692 10.5488 46.0428 10.1664 46.9614H10.1688Z" fill="white"/>
<path d="M7.30564 43.0742C6.94088 43.9035 6.60226 44.6792 6.26121 45.4537C5.78033 46.5443 5.28852 47.6307 4.82101 48.7256C4.65079 49.1238 4.37722 49.3031 3.95167 49.2922C3.69877 49.2855 3.44587 49.2922 3.19297 49.2885C2.87381 49.28 2.62273 49.1463 2.49081 48.846C1.66037 46.9622 0.832569 45.0758 0.00740132 43.1867C0.00190139 43.1669 -0.000558469 43.1464 0.000106125 43.1259C0.748472 42.8961 1.28832 43.1393 1.58073 43.8378C2.13395 45.1497 2.68737 46.4614 3.241 47.773C3.26471 47.8289 3.27443 47.8988 3.31456 47.9377C3.41608 48.0368 3.53341 48.1955 3.64041 48.1924C3.74741 48.1894 3.89513 48.0417 3.9541 47.9219C4.12797 47.5699 4.26719 47.2003 4.421 46.8374C4.84655 45.833 5.28426 44.8312 5.68975 43.822C5.90253 43.2907 6.25209 43.0317 6.82537 43.0706C6.96823 43.0828 7.11292 43.0742 7.30564 43.0742Z" fill="white"/>
<path d="M46.2249 43.0919C46.3368 43.8098 46.0529 44.146 45.3532 44.1466H43.6588V49.2156C42.9688 49.4648 42.4539 49.1226 42.4527 48.4417C42.4527 47.1158 42.446 45.7905 42.457 44.4652C42.457 44.2123 42.384 44.1363 42.1323 44.1412C41.3846 44.1564 40.6368 44.1466 39.8951 44.1466C39.7128 43.5016 40.0167 43.0761 40.6526 43.0749C42.4229 43.072 44.1936 43.072 45.9647 43.0749C46.0529 43.0755 46.1423 43.0864 46.2249 43.0919Z" fill="white"/>
<path d="M17.0749 43.0809C17.2603 43.0717 17.446 43.073 17.6312 43.0846C18.0045 43.1277 18.247 43.4214 18.2483 43.822C18.2483 45.1668 18.2574 46.5121 18.2428 47.8569C18.2397 48.1438 18.3133 48.2392 18.6118 48.2356C19.835 48.2192 21.0587 48.2289 22.2825 48.2289H22.6333C22.7853 48.8715 22.5038 49.2837 21.9038 49.2873C20.3669 49.297 18.8294 49.291 17.2926 49.2873C17.219 49.2821 17.1459 49.2717 17.0737 49.2563L17.0749 43.0809Z" fill="white"/>
</svg>
